<?xml version="1.0" encoding="utf-8"?>
<!-- Generator: Adobe Illustrator 16.0.0, SVG Export Plug-In . SVG Version: 6.00 Build 0)  -->
<!DOCTYPE svg PUBLIC "-//W3C//DTD SVG 1.1//EN" "http://www.w3.org/Graphics/SVG/1.1/DTD/svg11.dtd">
<svg version="1.1" id="Layer_1" xmlns="http://www.w3.org/2000/svg" xmlns:xlink="http://www.w3.org/1999/xlink" x="0px" y="0px"
	 width="28px" height="26px" viewBox="0 0 28 26" enable-background="new 0 0 28 26" xml:space="preserve">
<g>
	<path fill="#FFFFFF" d="M25.488,6.808c-0.222,0-0.434,0.032-0.639,0.088c-1.952-4.02-6.078-6.799-10.838-6.799
		c-4.761,0-8.886,2.779-10.839,6.799C2.969,6.84,2.755,6.808,2.534,6.808c-1.349,0-2.446,1.098-2.446,2.445v5.77
		c0,1.35,1.098,2.447,2.446,2.447s2.446-1.098,2.446-2.447v-5.77c0-0.224-0.033-0.44-0.09-0.647
		c1.419-3.653,4.972-6.251,9.122-6.251c4.149,0,7.701,2.598,9.121,6.251c-0.056,0.207-0.089,0.423-0.089,0.647v5.77
		c0,0.225,0.033,0.443,0.089,0.648c-1.141,2.936-3.658,5.189-6.757,5.961c-0.484-0.803-1.361-1.34-2.364-1.34
		c-1.522,0-2.76,1.238-2.76,2.76s1.238,2.76,2.76,2.76c1.23,0,2.274-0.809,2.628-1.924c3.619-0.811,6.628-3.248,8.21-6.506
		c0.205,0.055,0.417,0.088,0.639,0.088c1.349,0,2.447-1.098,2.447-2.447v-5.77C27.936,7.906,26.837,6.808,25.488,6.808z"/>
	<circle fill="#FFFFFF" cx="11.401" cy="10.101" r="1.305"/>
	<circle fill="#FFFFFF" cx="16.621" cy="10.101" r="1.306"/>
	<path fill="#FFFFFF" d="M18.393,13.022H9.63c0,2.419,1.962,4.38,4.381,4.38C16.432,17.402,18.393,15.441,18.393,13.022z"/>
</g>
</svg>
