<?xml version="1.0" encoding="utf-8"?>
<!-- Generator: Adobe Illustrator 16.0.0, SVG Export Plug-In . SVG Version: 6.00 Build 0)  -->
<!DOCTYPE svg PUBLIC "-//W3C//DTD SVG 1.1//EN" "http://www.w3.org/Graphics/SVG/1.1/DTD/svg11.dtd">
<svg version="1.1" id="Layer_1" xmlns="http://www.w3.org/2000/svg" xmlns:xlink="http://www.w3.org/1999/xlink" x="0px" y="0px"
	 width="26px" height="26px" viewBox="0 0 26 26" enable-background="new 0 0 26 26" xml:space="preserve">
<g>
	<path fill="#FFFFFF" d="M24.199,19.267c1.082-1.918,1.653-4.089,1.653-6.304c0-7.078-5.758-12.836-12.835-12.836
		S0.181,5.885,0.181,12.962c0,7.079,5.759,12.836,12.836,12.836c2.215,0,4.386-0.571,6.304-1.654l5.158,1.605
		c0.104,0.032,0.209,0.049,0.314,0.049c0.277,0,0.547-0.109,0.748-0.312c0.278-0.277,0.38-0.688,0.262-1.062L24.199,19.267z
		 M22.037,19.448l1.146,3.682l-3.682-1.147c-0.293-0.09-0.609-0.052-0.87,0.111c-1.686,1.038-3.627,1.586-5.615,1.586
		c-5.911,0-10.72-4.808-10.72-10.717S7.106,2.244,13.017,2.244c5.91,0,10.717,4.809,10.717,10.718c0,1.988-0.548,3.93-1.586,5.615
		C21.986,18.839,21.948,19.154,22.037,19.448z"/>
	<circle fill="#FFFFFF" cx="7.684" cy="12.962" r="1.881"/>
	<circle fill="#FFFFFF" cx="13.017" cy="12.962" r="1.881"/>
	<circle fill="#FFFFFF" cx="18.348" cy="12.962" r="1.881"/>
</g>
</svg>
