<?xml version="1.0" encoding="utf-8"?>
<!-- Generator: Adobe Illustrator 16.0.0, SVG Export Plug-In . SVG Version: 6.00 Build 0)  -->
<!DOCTYPE svg PUBLIC "-//W3C//DTD SVG 1.1//EN" "http://www.w3.org/Graphics/SVG/1.1/DTD/svg11.dtd">
<svg version="1.1" id="Layer_1" xmlns="http://www.w3.org/2000/svg" xmlns:xlink="http://www.w3.org/1999/xlink" x="0px" y="0px"
	 width="192px" height="36px" viewBox="0 0 192 36" enable-background="new 0 0 192 36" xml:space="preserve">
<g>
	<g>
		<defs>
			<path id="SVGID_1_" d="M17.704,19.852v0.133c6.904-4.276,15.037-6.749,23.736-6.749c8.763,0,16.951,2.508,23.886,6.841v-5.955
				c-7.032-3.807-15.069-5.983-23.602-6.031C32.648,9.85,24.414,13.997,17.704,19.852"/>
		</defs>
		<clipPath id="SVGID_2_">
			<use xlink:href="#SVGID_1_"  overflow="visible"/>
		</clipPath>
		
			<linearGradient id="SVGID_3_" gradientUnits="userSpaceOnUse" x1="41.9082" y1="-5.0444" x2="42.4937" y2="-5.0444" gradientTransform="matrix(81.354 0 0 81.354 -3391.6145 424.5166)">
			<stop  offset="0" style="stop-color:#00B8EE"/>
			<stop  offset="0.4" style="stop-color:#00B8EE"/>
			<stop  offset="1" style="stop-color:#4593D0"/>
		</linearGradient>
		<rect x="17.704" y="8.091" clip-path="url(#SVGID_2_)" fill="url(#SVGID_3_)" width="47.623" height="11.985"/>
	</g>
</g>
<g>
	<g>
		<defs>
			<rect id="SVGID_4_" x="2" y="2" width="69.313" height="31.334"/>
		</defs>
		<clipPath id="SVGID_5_">
			<use xlink:href="#SVGID_4_"  overflow="visible"/>
		</clipPath>
		<path clip-path="url(#SVGID_5_)" fill="#002E6D" d="M17.704,14.043v5.809c6.709-5.854,14.945-10,24.021-11.761
			c-0.093,0-0.188-0.004-0.284-0.004C32.864,8.086,24.78,10.244,17.704,14.043"/>
	</g>
	<g>
		<defs>
			<rect id="SVGID_6_" x="2" y="2" width="69.313" height="31.334"/>
		</defs>
		<clipPath id="SVGID_7_">
			<use xlink:href="#SVGID_6_"  overflow="visible"/>
		</clipPath>
		<polygon clip-path="url(#SVGID_7_)" fill="#002E6D" points="2,20.072 4.725,20.072 4.725,25.747 4.767,25.747 9.385,20.072 
			12.255,20.072 7.117,25.956 12.797,33.122 9.468,33.122 4.767,26.807 4.725,26.807 4.725,33.122 2,33.122 		"/>
	</g>
	<g>
		<defs>
			<rect id="SVGID_8_" x="2" y="2" width="69.313" height="31.334"/>
		</defs>
		<clipPath id="SVGID_9_">
			<use xlink:href="#SVGID_8_"  overflow="visible"/>
		</clipPath>
		<path clip-path="url(#SVGID_9_)" fill="#002E6D" d="M28.571,24.184c-0.023,0.103-1.486,6.614-1.486,6.614
			s-2.212-6.524-2.243-6.614h-1.224c-0.028,0.094-2.043,6.729-2.043,6.729s-1.662-6.63-1.687-6.729H17.7
			c0.045,0.166,2.473,8.844,2.5,8.938h2.061c0.03-0.089,1.893-5.712,1.893-5.712s2.071,5.627,2.102,5.712h2.082
			c0.025-0.099,2.152-8.778,2.191-8.938H28.571z"/>
	</g>
	<g>
		<defs>
			<rect id="SVGID_10_" x="2" y="2" width="69.313" height="31.334"/>
		</defs>
		<clipPath id="SVGID_11_">
			<use xlink:href="#SVGID_10_"  overflow="visible"/>
		</clipPath>
		<path clip-path="url(#SVGID_11_)" fill="#002E6D" d="M37.538,31.725v1.397h2.404v-6.069c0-1.6-0.449-3.078-3.707-3.078
			c-2.586,0-3.965,0.963-4,2.781h2.572c0.003-0.037,0.005-0.076,0.005-0.076c0.037-0.632,0.112-1.943,1.4-1.943
			c0.929,0,1.325,0.551,1.325,1.841v1.588l-0.063,0.004c-1.384,0.054-5.598,0.222-5.598,2.964c0,1.256,1.17,2.202,2.722,2.202
			C36.606,33.334,37.538,31.725,37.538,31.725 M35.584,32.15c-0.753,0-1.22-0.514-1.22-1.342c0-1.065,1.044-1.697,3.102-1.877
			l0.072-0.009v0.74C37.538,30.898,36.867,32.15,35.584,32.15"/>
	</g>
	<g>
		<defs>
			<rect id="SVGID_12_" x="2" y="2" width="69.313" height="31.334"/>
		</defs>
		<clipPath id="SVGID_13_">
			<use xlink:href="#SVGID_12_"  overflow="visible"/>
		</clipPath>
		<path clip-path="url(#SVGID_13_)" fill="#002E6D" d="M46.425,33.334c0.562,0,1.118-0.053,1.706-0.109h0.01v-1.188
			c-0.355,0.098-0.752,0.113-1.065,0.113c-1.021,0-1.366-0.392-1.366-1.553v-5.441h2.81v-0.973h-2.81v-3.48
			c-0.181,0.098-2.34,1.281-2.405,1.316v2.164H41.44v0.973h1.865v5.728C43.305,32.924,44.499,33.334,46.425,33.334"/>
	</g>
	<g>
		<defs>
			<rect id="SVGID_14_" x="2" y="2" width="69.313" height="31.334"/>
		</defs>
		<clipPath id="SVGID_15_">
			<use xlink:href="#SVGID_14_"  overflow="visible"/>
		</clipPath>
		<path clip-path="url(#SVGID_15_)" fill="#002E6D" d="M54.184,33.334c1.428,0,2.043-0.178,3.162-0.609V31.91
			c-0.531,0.18-1.205,0.374-1.883,0.374c-2.934,0-3.883-3.114-3.883-4.622v-0.066h5.954v-0.277c0-2.155-1.413-3.344-3.979-3.344
			c-2.906,0-4.379,1.434-4.379,4.26C49.176,32.837,52.678,33.334,54.184,33.334 M51.581,26.699c0.087-0.592,0.447-1.963,1.89-1.963
			c1.695,0,1.744,1.77,1.744,1.973v0.066h-3.646L51.581,26.699z"/>
	</g>
	<g>
		<defs>
			<rect id="SVGID_16_" x="2" y="2" width="69.313" height="31.334"/>
		</defs>
		<clipPath id="SVGID_17_">
			<use xlink:href="#SVGID_16_"  overflow="visible"/>
		</clipPath>
		<path clip-path="url(#SVGID_17_)" fill="#002E6D" d="M65.313,26.225v-2.24c-1.756,0.136-2.622,1.259-3.33,2.468l-0.087,0.14
			v-2.408h-2.405v8.939h2.405v-3.994C61.896,27.057,62.857,26.238,65.313,26.225"/>
	</g>
</g>
<g>
	<g>
		<defs>
			<path id="SVGID_18_" d="M51.557,2C39.193,2,27.434,5.931,17.704,13.2v0.843c7.077-3.799,15.16-5.957,23.736-5.957
				c0.096,0,0.191,0.004,0.284,0.004c3.185-0.617,6.471-0.944,9.832-0.944c6.996,0,13.668,1.404,19.756,3.94V5.55
				C65.159,3.255,58.501,2,51.557,2z"/>
		</defs>
		<clipPath id="SVGID_19_">
			<use xlink:href="#SVGID_18_"  overflow="visible"/>
		</clipPath>
		
			<linearGradient id="SVGID_20_" gradientUnits="userSpaceOnUse" x1="41.5278" y1="-5.3833" x2="42.1133" y2="-5.3833" gradientTransform="matrix(91.5796 0 0 91.5796 -3785.3523 501.0322)">
			<stop  offset="0" style="stop-color:#EC6C00"/>
			<stop  offset="1" style="stop-color:#FCCF00"/>
		</linearGradient>
		<rect x="17.704" y="2" clip-path="url(#SVGID_19_)" fill="url(#SVGID_20_)" width="53.609" height="12.043"/>
	</g>
</g>
<g enable-background="new    ">
	<path fill="#0C0C0C" d="M85.135,20.234v-2.031h2.469v2.031h7.783v2.012H77.351v-2.012H85.135z M93.755,19.04
		c-1.912-0.212-3.461-0.613-4.649-1.205c-1.188-0.591-2.1-1.303-2.737-2.14c-0.637,0.836-1.55,1.549-2.738,2.14
		c-1.188,0.592-2.737,0.993-4.648,1.205l-0.817-1.911c1.048-0.133,2.001-0.322,2.857-0.568s1.586-0.551,2.19-0.916
		c0.604-0.364,1.072-0.786,1.403-1.263c0.332-0.478,0.498-1.016,0.498-1.613v-0.975h2.508v0.975c0,0.598,0.166,1.135,0.498,1.613
		c0.332,0.478,0.8,0.899,1.404,1.263c0.604,0.365,1.333,0.67,2.189,0.916c0.856,0.246,1.808,0.435,2.857,0.568L93.755,19.04z
		 M82.388,30.09c-1.407,0-2.446-0.265-3.115-0.788c-0.67-0.523-1.005-1.369-1.005-2.537c0-1.169,0.335-2.004,1.005-2.509
		c0.669-0.505,1.708-0.756,3.115-0.756h8.003c1.407,0,2.446,0.251,3.115,0.756c0.67,0.505,1.005,1.34,1.005,2.509
		c0,1.168-0.335,2.014-1.005,2.537c-0.669,0.523-1.708,0.788-3.115,0.788H82.388z M80.675,26.765c0,0.438,0.14,0.773,0.418,1.004
		c0.279,0.233,0.83,0.349,1.653,0.349h7.286c0.81,0,1.357-0.113,1.643-0.339c0.285-0.225,0.428-0.563,0.428-1.014
		s-0.143-0.78-0.428-0.986c-0.286-0.205-0.833-0.308-1.643-0.308h-7.286c-0.823,0-1.374,0.106-1.653,0.317
		C80.815,26.001,80.675,26.326,80.675,26.765z"/>
	<path fill="#0C0C0C" d="M106.576,21.767c-0.797-0.331-1.573-0.818-2.33-1.464c-0.755-0.642-1.432-1.483-2.03-2.517
		c-0.531,0.956-1.188,1.806-1.971,2.548c-0.783,0.743-1.672,1.347-2.667,1.812l-1.275-1.692c0.691-0.332,1.318-0.721,1.881-1.164
		c0.564-0.444,1.048-0.937,1.453-1.474s0.718-1.118,0.937-1.742c0.218-0.624,0.328-1.281,0.328-1.972v-2.308h2.488v2.229
		c0,0.756,0.126,1.447,0.379,2.07c0.252,0.625,0.583,1.188,0.994,1.693c0.411,0.504,0.884,0.941,1.415,1.314
		c0.528,0.37,1.068,0.675,1.612,0.914L106.576,21.767z M100.724,23.459v4.421h12.144v2.01H98.254v-6.431H100.724z M115.395,18.94
		h-2.827v6.431h-2.447V11.634h2.447v5.295h2.827V18.94z"/>
	<path fill="#0C0C0C" d="M134.427,27.679v2.012H116.37v-2.012H134.427z M117.783,13.883v-1.99h15.25v12.363h-2.449V13.883H117.783z"
		/>
	<path fill="#0C0C0C" d="M136.677,21.968v-6.034h7.485v-2.011h-7.525v-2.03h10.014v6.072h-7.506v2.01h8.58v1.992H136.677z
		 M139.941,23.459v4.421h13.337v2.01h-15.807v-6.431H139.941z M150.532,11.634h2.448v13.737h-2.448V11.634z"/>
	<path fill="#0C0C0C" d="M165.722,29.671c-0.89-0.599-1.729-1.321-2.519-2.17c-0.79-0.85-1.438-1.793-1.94-2.826
		c-0.531,1.047-1.207,2.025-2.031,2.935c-0.823,0.911-1.691,1.664-2.608,2.261l-1.453-1.632c1.527-0.957,2.718-2.121,3.574-3.494
		c0.856-1.375,1.284-2.903,1.284-4.59v-8.36h2.488v8.36c0,1.726,0.395,3.232,1.185,4.521c0.79,1.287,1.947,2.408,3.474,3.364
		L165.722,29.671z M170.042,11.634h2.448V30.09h-2.448V11.634z"/>
	<path fill="#0C0C0C" d="M175.696,11.893h10.45v2.011h-7.982v5.753h7.604v2.029h-7.604v6.055h8.381v1.988h-10.849V11.893z
		 M189.551,11.634H192V30.09h-2.449V11.634z"/>
</g>
</svg>
